<?xml version="1.0" encoding="UTF-8"?>
<!DOCTYPE svg PUBLIC "-//W3C//DTD SVG 1.1//EN" "http://www.w3.org/Graphics/SVG/1.1/DTD/svg11.dtd">
<!-- Creator: CorelDRAW X7 -->
<svg xmlns="http://www.w3.org/2000/svg" xml:space="preserve" width="182px" height="103px" version="1.1" style="shape-rendering:geometricPrecision; text-rendering:geometricPrecision; image-rendering:optimizeQuality; fill-rule:evenodd; clip-rule:evenodd"
viewBox="0 0 5306 2998"
 xmlns:xlink="http://www.w3.org/1999/xlink">
 <defs>
  <style type="text/css">
   <![CDATA[
    .fil0 {fill:black}
   ]]>
  </style>
 </defs>
 <g id="Warstwa_x0020_1">
  <metadata id="CorelCorpID_0Corel-Layer"/>
  <path class="fil0" d="M1090 1649l-490 1349 -600 0 790 -2174 300 825 0 0zm-9 0l-487 1340 -582 0 778 -2140 291 800z"/>
  <path class="fil0" d="M1090 0l1090 2998 600 0 -1090 -2998 -600 0zm12 9l582 0 1084 2980 -582 0 -1084 -2980z"/>
  <path class="fil0" d="M2353 0l1090 2998 600 0 -1090 -2998 -600 0zm12 9l582 0 1084 2980 -582 0 -1084 -2980z"/>
  <path class="fil0" d="M3616 0l1090 2998 600 0 -1090 -2998 -600 0zm12 9l582 0 1083 2980 -581 0 -1084 -2980z"/>
  <path class="fil0" d="M2037 868l300 824 300 -824 -300 -824 -300 824zm300 -799l291 799 -291 799 -291 -799 291 -799z"/>
  <path class="fil0" d="M3300 868l300 824 300 -824 -300 -824 -300 824zm300 -799l291 799 -291 799 -291 -799 291 -799z"/>
 </g>
</svg>
